<svg width="480.601471" height="477.820129" viewBox="0 0 480.601 477.82" fill="none" xmlns="http://www.w3.org/2000/svg" xmlns:xlink="http://www.w3.org/1999/xlink">
	<desc>
			Created with Pixso.
	</desc>
	<defs/>
	<path id="Vector 1" d="M48.47 348.85C152.11 82.22 299.41 384.58 442.45 149.36" stroke="#BCA37F" stroke-opacity="0.700000" stroke-width="1.000000"/>
	<path id="inner Circle" d="M445.49 147.48C448.64 148.49 452.02 146.74 453.02 143.58C454.03 140.43 452.28 137.05 449.12 136.05C445.96 135.04 442.59 136.79 441.59 139.95C440.58 143.11 442.33 146.48 445.49 147.48Z" fill="#BCA37F" fill-opacity="1.000000" fill-rule="evenodd"/>
	<path id="outer Circle" d="M455.88 144.49C457.39 139.76 454.77 134.7 450.03 133.19C445.29 131.68 440.23 134.3 438.73 139.04C437.22 143.78 439.84 148.84 444.58 150.34C449.31 151.85 454.37 149.23 455.88 144.49Z" stroke="#113946" stroke-opacity="0.500000" stroke-width="1.000000"/>
</svg>
